<?xml version="1.0" encoding="utf-8" standalone="no"?>
<!DOCTYPE svg PUBLIC "-//W3C//DTD SVG 1.1//EN"
  "http://www.w3.org/Graphics/SVG/1.1/DTD/svg11.dtd">
<!-- Created with matplotlib (https://matplotlib.org/) -->
<svg height="248.518125pt" version="1.1" viewBox="0 0 372.103125 248.518125" width="372.103125pt" xmlns="http://www.w3.org/2000/svg" xmlns:xlink="http://www.w3.org/1999/xlink">
 <metadata>
  <rdf:RDF xmlns:cc="http://creativecommons.org/ns#" xmlns:dc="http://purl.org/dc/elements/1.1/" xmlns:rdf="http://www.w3.org/1999/02/22-rdf-syntax-ns#">
   <cc:Work>
    <dc:type rdf:resource="http://purl.org/dc/dcmitype/StillImage"/>
    <dc:date>2021-11-26T11:52:13.118854</dc:date>
    <dc:format>image/svg+xml</dc:format>
    <dc:creator>
     <cc:Agent>
      <dc:title>Matplotlib v3.3.4, https://matplotlib.org/</dc:title>
     </cc:Agent>
    </dc:creator>
   </cc:Work>
  </rdf:RDF>
 </metadata>
 <defs>
  <style type="text/css">*{stroke-linecap:butt;stroke-linejoin:round;}</style>
 </defs>
 <g id="figure_1">
  <g id="patch_1">
   <path d="M 0 248.518125 
L 372.103125 248.518125 
L 372.103125 0 
L 0 0 
z
"/>
  </g>
  <g id="axes_1">
   <g id="patch_2">
    <path d="M 30.103125 224.64 
L 364.903125 224.64 
L 364.903125 7.2 
L 30.103125 7.2 
z
"/>
   </g>
   <g id="matplotlib.axis_1">
    <g id="xtick_1">
     <g id="line2d_1">
      <defs>
       <path d="M 0 0 
L 0 3.5 
" id="me6c4db9f45" style="stroke:#ffffff;stroke-width:0.8;"/>
      </defs>
      <g>
       <use style="fill:#ffffff;stroke:#ffffff;stroke-width:0.8;" x="45.321307" xlink:href="#me6c4db9f45" y="224.64"/>
      </g>
     </g>
     <g id="text_1">
      <!-- 0 -->
      <g style="fill:#ffffff;" transform="translate(42.140057 239.238437)scale(0.1 -0.1)">
       <defs>
        <path d="M 31.78125 66.40625 
Q 24.171875 66.40625 20.328125 58.90625 
Q 16.5 51.421875 16.5 36.375 
Q 16.5 21.390625 20.328125 13.890625 
Q 24.171875 6.390625 31.78125 6.390625 
Q 39.453125 6.390625 43.28125 13.890625 
Q 47.125 21.390625 47.125 36.375 
Q 47.125 51.421875 43.28125 58.90625 
Q 39.453125 66.40625 31.78125 66.40625 
z
M 31.78125 74.21875 
Q 44.046875 74.21875 50.515625 64.515625 
Q 56.984375 54.828125 56.984375 36.375 
Q 56.984375 17.96875 50.515625 8.265625 
Q 44.046875 -1.421875 31.78125 -1.421875 
Q 19.53125 -1.421875 13.0625 8.265625 
Q 6.59375 17.96875 6.59375 36.375 
Q 6.59375 54.828125 13.0625 64.515625 
Q 19.53125 74.21875 31.78125 74.21875 
z
" id="DejaVuSans-48"/>
       </defs>
       <use xlink:href="#DejaVuSans-48"/>
      </g>
     </g>
    </g>
    <g id="xtick_2">
     <g id="line2d_2">
      <g>
       <use style="fill:#ffffff;stroke:#ffffff;stroke-width:0.8;" x="106.80891" xlink:href="#me6c4db9f45" y="224.64"/>
      </g>
     </g>
     <g id="text_2">
      <!-- 20 -->
      <g style="fill:#ffffff;" transform="translate(100.44641 239.238437)scale(0.1 -0.1)">
       <defs>
        <path d="M 19.1875 8.296875 
L 53.609375 8.296875 
L 53.609375 0 
L 7.328125 0 
L 7.328125 8.296875 
Q 12.9375 14.109375 22.625 23.890625 
Q 32.328125 33.6875 34.8125 36.53125 
Q 39.546875 41.84375 41.421875 45.53125 
Q 43.3125 49.21875 43.3125 52.78125 
Q 43.3125 58.59375 39.234375 62.25 
Q 35.15625 65.921875 28.609375 65.921875 
Q 23.96875 65.921875 18.8125 64.3125 
Q 13.671875 62.703125 7.8125 59.421875 
L 7.8125 69.390625 
Q 13.765625 71.78125 18.9375 73 
Q 24.125 74.21875 28.421875 74.21875 
Q 39.75 74.21875 46.484375 68.546875 
Q 53.21875 62.890625 53.21875 53.421875 
Q 53.21875 48.921875 51.53125 44.890625 
Q 49.859375 40.875 45.40625 35.40625 
Q 44.1875 33.984375 37.640625 27.21875 
Q 31.109375 20.453125 19.1875 8.296875 
z
" id="DejaVuSans-50"/>
       </defs>
       <use xlink:href="#DejaVuSans-50"/>
       <use x="63.623047" xlink:href="#DejaVuSans-48"/>
      </g>
     </g>
    </g>
    <g id="xtick_3">
     <g id="line2d_3">
      <g>
       <use style="fill:#ffffff;stroke:#ffffff;stroke-width:0.8;" x="168.296513" xlink:href="#me6c4db9f45" y="224.64"/>
      </g>
     </g>
     <g id="text_3">
      <!-- 40 -->
      <g style="fill:#ffffff;" transform="translate(161.934013 239.238437)scale(0.1 -0.1)">
       <defs>
        <path d="M 37.796875 64.3125 
L 12.890625 25.390625 
L 37.796875 25.390625 
z
M 35.203125 72.90625 
L 47.609375 72.90625 
L 47.609375 25.390625 
L 58.015625 25.390625 
L 58.015625 17.1875 
L 47.609375 17.1875 
L 47.609375 0 
L 37.796875 0 
L 37.796875 17.1875 
L 4.890625 17.1875 
L 4.890625 26.703125 
z
" id="DejaVuSans-52"/>
       </defs>
       <use xlink:href="#DejaVuSans-52"/>
       <use x="63.623047" xlink:href="#DejaVuSans-48"/>
      </g>
     </g>
    </g>
    <g id="xtick_4">
     <g id="line2d_4">
      <g>
       <use style="fill:#ffffff;stroke:#ffffff;stroke-width:0.8;" x="229.784117" xlink:href="#me6c4db9f45" y="224.64"/>
      </g>
     </g>
     <g id="text_4">
      <!-- 60 -->
      <g style="fill:#ffffff;" transform="translate(223.421617 239.238437)scale(0.1 -0.1)">
       <defs>
        <path d="M 33.015625 40.375 
Q 26.375 40.375 22.484375 35.828125 
Q 18.609375 31.296875 18.609375 23.390625 
Q 18.609375 15.53125 22.484375 10.953125 
Q 26.375 6.390625 33.015625 6.390625 
Q 39.65625 6.390625 43.53125 10.953125 
Q 47.40625 15.53125 47.40625 23.390625 
Q 47.40625 31.296875 43.53125 35.828125 
Q 39.65625 40.375 33.015625 40.375 
z
M 52.59375 71.296875 
L 52.59375 62.3125 
Q 48.875 64.0625 45.09375 64.984375 
Q 41.3125 65.921875 37.59375 65.921875 
Q 27.828125 65.921875 22.671875 59.328125 
Q 17.53125 52.734375 16.796875 39.40625 
Q 19.671875 43.65625 24.015625 45.921875 
Q 28.375 48.1875 33.59375 48.1875 
Q 44.578125 48.1875 50.953125 41.515625 
Q 57.328125 34.859375 57.328125 23.390625 
Q 57.328125 12.15625 50.6875 5.359375 
Q 44.046875 -1.421875 33.015625 -1.421875 
Q 20.359375 -1.421875 13.671875 8.265625 
Q 6.984375 17.96875 6.984375 36.375 
Q 6.984375 53.65625 15.1875 63.9375 
Q 23.390625 74.21875 37.203125 74.21875 
Q 40.921875 74.21875 44.703125 73.484375 
Q 48.484375 72.75 52.59375 71.296875 
z
" id="DejaVuSans-54"/>
       </defs>
       <use xlink:href="#DejaVuSans-54"/>
       <use x="63.623047" xlink:href="#DejaVuSans-48"/>
      </g>
     </g>
    </g>
    <g id="xtick_5">
     <g id="line2d_5">
      <g>
       <use style="fill:#ffffff;stroke:#ffffff;stroke-width:0.8;" x="291.27172" xlink:href="#me6c4db9f45" y="224.64"/>
      </g>
     </g>
     <g id="text_5">
      <!-- 80 -->
      <g style="fill:#ffffff;" transform="translate(284.90922 239.238437)scale(0.1 -0.1)">
       <defs>
        <path d="M 31.78125 34.625 
Q 24.75 34.625 20.71875 30.859375 
Q 16.703125 27.09375 16.703125 20.515625 
Q 16.703125 13.921875 20.71875 10.15625 
Q 24.75 6.390625 31.78125 6.390625 
Q 38.8125 6.390625 42.859375 10.171875 
Q 46.921875 13.96875 46.921875 20.515625 
Q 46.921875 27.09375 42.890625 30.859375 
Q 38.875 34.625 31.78125 34.625 
z
M 21.921875 38.8125 
Q 15.578125 40.375 12.03125 44.71875 
Q 8.5 49.078125 8.5 55.328125 
Q 8.5 64.0625 14.71875 69.140625 
Q 20.953125 74.21875 31.78125 74.21875 
Q 42.671875 74.21875 48.875 69.140625 
Q 55.078125 64.0625 55.078125 55.328125 
Q 55.078125 49.078125 51.53125 44.71875 
Q 48 40.375 41.703125 38.8125 
Q 48.828125 37.15625 52.796875 32.3125 
Q 56.78125 27.484375 56.78125 20.515625 
Q 56.78125 9.90625 50.3125 4.234375 
Q 43.84375 -1.421875 31.78125 -1.421875 
Q 19.734375 -1.421875 13.25 4.234375 
Q 6.78125 9.90625 6.78125 20.515625 
Q 6.78125 27.484375 10.78125 32.3125 
Q 14.796875 37.15625 21.921875 38.8125 
z
M 18.3125 54.390625 
Q 18.3125 48.734375 21.84375 45.5625 
Q 25.390625 42.390625 31.78125 42.390625 
Q 38.140625 42.390625 41.71875 45.5625 
Q 45.3125 48.734375 45.3125 54.390625 
Q 45.3125 60.0625 41.71875 63.234375 
Q 38.140625 66.40625 31.78125 66.40625 
Q 25.390625 66.40625 21.84375 63.234375 
Q 18.3125 60.0625 18.3125 54.390625 
z
" id="DejaVuSans-56"/>
       </defs>
       <use xlink:href="#DejaVuSans-56"/>
       <use x="63.623047" xlink:href="#DejaVuSans-48"/>
      </g>
     </g>
    </g>
    <g id="xtick_6">
     <g id="line2d_6">
      <g>
       <use style="fill:#ffffff;stroke:#ffffff;stroke-width:0.8;" x="352.759323" xlink:href="#me6c4db9f45" y="224.64"/>
      </g>
     </g>
     <g id="text_6">
      <!-- 100 -->
      <g style="fill:#ffffff;" transform="translate(343.215573 239.238437)scale(0.1 -0.1)">
       <defs>
        <path d="M 12.40625 8.296875 
L 28.515625 8.296875 
L 28.515625 63.921875 
L 10.984375 60.40625 
L 10.984375 69.390625 
L 28.421875 72.90625 
L 38.28125 72.90625 
L 38.28125 8.296875 
L 54.390625 8.296875 
L 54.390625 0 
L 12.40625 0 
z
" id="DejaVuSans-49"/>
       </defs>
       <use xlink:href="#DejaVuSans-49"/>
       <use x="63.623047" xlink:href="#DejaVuSans-48"/>
       <use x="127.246094" xlink:href="#DejaVuSans-48"/>
      </g>
     </g>
    </g>
   </g>
   <g id="matplotlib.axis_2">
    <g id="ytick_1">
     <g id="line2d_7">
      <defs>
       <path d="M 0 0 
L -3.5 0 
" id="m45d2364e01" style="stroke:#ffffff;stroke-width:0.8;"/>
      </defs>
      <g>
       <use style="fill:#ffffff;stroke:#ffffff;stroke-width:0.8;" x="30.103125" xlink:href="#m45d2364e01" y="214.871172"/>
      </g>
     </g>
     <g id="text_7">
      <!-- 0.0 -->
      <g style="fill:#ffffff;" transform="translate(7.2 218.670391)scale(0.1 -0.1)">
       <defs>
        <path d="M 10.6875 12.40625 
L 21 12.40625 
L 21 0 
L 10.6875 0 
z
" id="DejaVuSans-46"/>
       </defs>
       <use xlink:href="#DejaVuSans-48"/>
       <use x="63.623047" xlink:href="#DejaVuSans-46"/>
       <use x="95.410156" xlink:href="#DejaVuSans-48"/>
      </g>
     </g>
    </g>
    <g id="ytick_2">
     <g id="line2d_8">
      <g>
       <use style="fill:#ffffff;stroke:#ffffff;stroke-width:0.8;" x="30.103125" xlink:href="#m45d2364e01" y="172.180231"/>
      </g>
     </g>
     <g id="text_8">
      <!-- 0.2 -->
      <g style="fill:#ffffff;" transform="translate(7.2 175.979449)scale(0.1 -0.1)">
       <use xlink:href="#DejaVuSans-48"/>
       <use x="63.623047" xlink:href="#DejaVuSans-46"/>
       <use x="95.410156" xlink:href="#DejaVuSans-50"/>
      </g>
     </g>
    </g>
    <g id="ytick_3">
     <g id="line2d_9">
      <g>
       <use style="fill:#ffffff;stroke:#ffffff;stroke-width:0.8;" x="30.103125" xlink:href="#m45d2364e01" y="129.489289"/>
      </g>
     </g>
     <g id="text_9">
      <!-- 0.4 -->
      <g style="fill:#ffffff;" transform="translate(7.2 133.288508)scale(0.1 -0.1)">
       <use xlink:href="#DejaVuSans-48"/>
       <use x="63.623047" xlink:href="#DejaVuSans-46"/>
       <use x="95.410156" xlink:href="#DejaVuSans-52"/>
      </g>
     </g>
    </g>
    <g id="ytick_4">
     <g id="line2d_10">
      <g>
       <use style="fill:#ffffff;stroke:#ffffff;stroke-width:0.8;" x="30.103125" xlink:href="#m45d2364e01" y="86.798348"/>
      </g>
     </g>
     <g id="text_10">
      <!-- 0.6 -->
      <g style="fill:#ffffff;" transform="translate(7.2 90.597566)scale(0.1 -0.1)">
       <use xlink:href="#DejaVuSans-48"/>
       <use x="63.623047" xlink:href="#DejaVuSans-46"/>
       <use x="95.410156" xlink:href="#DejaVuSans-54"/>
      </g>
     </g>
    </g>
    <g id="ytick_5">
     <g id="line2d_11">
      <g>
       <use style="fill:#ffffff;stroke:#ffffff;stroke-width:0.8;" x="30.103125" xlink:href="#m45d2364e01" y="44.107406"/>
      </g>
     </g>
     <g id="text_11">
      <!-- 0.8 -->
      <g style="fill:#ffffff;" transform="translate(7.2 47.906625)scale(0.1 -0.1)">
       <use xlink:href="#DejaVuSans-48"/>
       <use x="63.623047" xlink:href="#DejaVuSans-46"/>
       <use x="95.410156" xlink:href="#DejaVuSans-56"/>
      </g>
     </g>
    </g>
   </g>
   <g id="line2d_12">
    <path clip-path="url(#pb9671155dc)" d="M 45.321307 214.756364 
L 48.395687 214.742596 
L 51.470067 214.742596 
L 54.544447 214.744322 
L 57.618827 214.737864 
L 60.693208 214.737864 
L 63.767588 214.741997 
L 66.841968 214.741997 
L 69.916348 214.741997 
L 72.990728 214.741997 
L 76.065108 214.754679 
L 79.139489 214.754679 
L 82.213869 214.754679 
L 85.288249 214.753907 
L 88.362629 214.753907 
L 91.437009 214.729497 
L 94.511389 214.729497 
L 97.58577 214.729497 
L 100.66015 214.729497 
L 103.73453 214.729497 
L 106.80891 214.729497 
L 109.88329 214.729497 
L 112.95767 214.729497 
L 116.032051 214.729497 
L 119.106431 214.729497 
L 122.180811 214.729497 
L 125.255191 214.729497 
L 128.329571 214.729497 
L 131.403951 214.729497 
L 134.478332 214.729497 
L 137.552712 214.729497 
L 140.627092 214.729497 
L 143.701472 214.729497 
L 146.775852 214.729497 
L 149.850232 214.729497 
L 152.924613 214.729497 
L 155.998993 214.729497 
L 159.073373 214.729497 
L 162.147753 214.729497 
L 165.222133 214.729497 
L 168.296513 214.729497 
L 171.370894 214.729497 
L 174.445274 214.729497 
L 177.519654 214.729497 
L 180.594034 214.729497 
L 183.668414 214.729497 
L 186.742794 214.736117 
L 189.817175 214.736117 
L 192.891555 214.736117 
L 195.965935 214.736117 
L 199.040315 214.736117 
L 202.114695 214.736117 
L 205.189075 214.736117 
L 208.263456 214.736117 
L 211.337836 214.736117 
L 214.412216 214.736117 
L 217.486596 214.736117 
L 220.560976 214.736117 
L 223.635356 214.736117 
L 226.709737 214.736117 
L 229.784117 214.736117 
L 232.858497 214.736117 
L 235.932877 214.736117 
L 239.007257 214.736117 
L 242.081637 214.736117 
L 245.156018 214.736117 
L 248.230398 214.736117 
L 251.304778 214.736117 
L 254.379158 214.736117 
L 257.453538 214.736117 
L 260.527918 214.736117 
L 263.602299 214.736117 
L 266.676679 214.736117 
L 269.751059 214.736117 
L 272.825439 214.736117 
L 275.899819 214.736117 
L 278.974199 214.736117 
L 282.04858 214.736117 
L 285.12296 214.736117 
L 288.19734 214.736117 
L 291.27172 214.736117 
L 294.3461 214.736117 
L 297.42048 214.736117 
L 300.494861 214.736117 
L 303.569241 214.736117 
L 306.643621 214.736117 
L 309.718001 214.736117 
L 312.792381 214.736117 
L 315.866761 214.736117 
L 318.941142 214.736117 
L 322.015522 214.736117 
L 325.089902 214.736117 
L 328.164282 214.736117 
L 331.238662 214.736117 
L 334.313042 214.736117 
L 337.387423 214.736117 
L 340.461803 214.736117 
L 343.536183 214.736117 
L 346.610563 214.736117 
L 349.684943 214.736117 
" style="fill:none;stroke:#8dd3c7;stroke-linecap:square;stroke-width:1.5;"/>
   </g>
   <g id="line2d_13">
    <path clip-path="url(#pb9671155dc)" d="M 45.321307 214.378637 
L 48.395687 214.356834 
L 51.470067 214.356834 
L 54.544447 214.220381 
L 57.618827 213.967593 
L 60.693208 213.967593 
L 63.767588 213.73945 
L 66.841968 213.73945 
L 69.916348 213.73945 
L 72.990728 213.73945 
L 76.065108 213.723853 
L 79.139489 213.723853 
L 82.213869 213.723853 
L 85.288249 213.391638 
L 88.362629 213.391638 
L 91.437009 213.386568 
L 94.511389 213.386568 
L 97.58577 213.386568 
L 100.66015 213.386568 
L 103.73453 213.386568 
L 106.80891 213.386568 
L 109.88329 213.386568 
L 112.95767 213.386568 
L 116.032051 213.386568 
L 119.106431 213.386568 
L 122.180811 213.386568 
L 125.255191 213.386568 
L 128.329571 213.386568 
L 131.403951 213.386568 
L 134.478332 213.386568 
L 137.552712 213.386568 
L 140.627092 213.386568 
L 143.701472 213.386568 
L 146.775852 213.386568 
L 149.850232 213.386568 
L 152.924613 213.386568 
L 155.998993 213.386568 
L 159.073373 213.386568 
L 162.147753 213.386568 
L 165.222133 213.386568 
L 168.296513 213.386568 
L 171.370894 213.386568 
L 174.445274 213.386568 
L 177.519654 213.386568 
L 180.594034 213.386568 
L 183.668414 213.386568 
L 186.742794 213.557794 
L 189.817175 213.557794 
L 192.891555 213.557794 
L 195.965935 213.557794 
L 199.040315 213.557794 
L 202.114695 213.557794 
L 205.189075 213.557794 
L 208.263456 213.557794 
L 211.337836 213.557794 
L 214.412216 213.557794 
L 217.486596 213.557794 
L 220.560976 213.557794 
L 223.635356 213.557794 
L 226.709737 213.557794 
L 229.784117 213.557794 
L 232.858497 213.557794 
L 235.932877 213.557794 
L 239.007257 213.557794 
L 242.081637 213.557794 
L 245.156018 213.557794 
L 248.230398 213.557794 
L 251.304778 213.557794 
L 254.379158 213.557794 
L 257.453538 213.557794 
L 260.527918 213.557794 
L 263.602299 213.557794 
L 266.676679 213.557794 
L 269.751059 213.557794 
L 272.825439 213.557794 
L 275.899819 213.557794 
L 278.974199 213.557794 
L 282.04858 213.557794 
L 285.12296 213.557794 
L 288.19734 213.557794 
L 291.27172 213.557794 
L 294.3461 213.557794 
L 297.42048 213.557794 
L 300.494861 213.557794 
L 303.569241 213.557794 
L 306.643621 213.557794 
L 309.718001 213.557794 
L 312.792381 213.557794 
L 315.866761 213.557794 
L 318.941142 213.557794 
L 322.015522 213.557794 
L 325.089902 213.557794 
L 328.164282 213.557794 
L 331.238662 213.557794 
L 334.313042 213.557794 
L 337.387423 213.557794 
L 340.461803 213.557794 
L 343.536183 213.557794 
L 346.610563 213.557794 
L 349.684943 213.557794 
" style="fill:none;stroke:#feffb3;stroke-linecap:square;stroke-width:1.5;"/>
   </g>
   <g id="line2d_14">
    <path clip-path="url(#pb9671155dc)" d="M 45.321307 17.221957 
L 48.395687 30.967587 
L 51.470067 30.967587 
L 54.544447 47.749164 
L 57.618827 59.088547 
L 60.693208 59.088547 
L 63.767588 91.253123 
L 66.841968 91.253123 
L 69.916348 91.253123 
L 72.990728 91.253123 
L 76.065108 113.396223 
L 79.139489 113.396223 
L 82.213869 113.396223 
L 85.288249 167.72264 
L 88.362629 167.72264 
L 91.437009 203.288836 
L 94.511389 203.288836 
L 97.58577 203.288836 
L 100.66015 203.288836 
L 103.73453 203.288836 
L 106.80891 203.288836 
L 109.88329 203.288836 
L 112.95767 203.288836 
L 116.032051 203.288836 
L 119.106431 203.288836 
L 122.180811 203.288836 
L 125.255191 203.288836 
L 128.329571 203.288836 
L 131.403951 203.288836 
L 134.478332 203.288836 
L 137.552712 203.288836 
L 140.627092 203.288836 
L 143.701472 203.288836 
L 146.775852 203.288836 
L 149.850232 203.288836 
L 152.924613 203.288836 
L 155.998993 203.288836 
L 159.073373 203.288836 
L 162.147753 203.288836 
L 165.222133 203.288836 
L 168.296513 203.288836 
L 171.370894 203.288836 
L 174.445274 203.288836 
L 177.519654 203.288836 
L 180.594034 203.288836 
L 183.668414 203.288836 
L 186.742794 206.564235 
L 189.817175 206.564235 
L 192.891555 206.564235 
L 195.965935 206.564235 
L 199.040315 206.564235 
L 202.114695 206.564235 
L 205.189075 206.564235 
L 208.263456 206.564235 
L 211.337836 206.564235 
L 214.412216 206.564235 
L 217.486596 206.564235 
L 220.560976 206.564235 
L 223.635356 206.564235 
L 226.709737 206.564235 
L 229.784117 206.564235 
L 232.858497 206.564235 
L 235.932877 206.564235 
L 239.007257 206.564235 
L 242.081637 206.564235 
L 245.156018 206.564235 
L 248.230398 206.564235 
L 251.304778 206.564235 
L 254.379158 206.564235 
L 257.453538 206.564235 
L 260.527918 206.564235 
L 263.602299 206.564235 
L 266.676679 206.564235 
L 269.751059 206.564235 
L 272.825439 206.564235 
L 275.899819 206.564235 
L 278.974199 206.564235 
L 282.04858 206.564235 
L 285.12296 206.564235 
L 288.19734 206.564235 
L 291.27172 206.564235 
L 294.3461 206.564235 
L 297.42048 206.564235 
L 300.494861 206.564235 
L 303.569241 206.564235 
L 306.643621 206.564235 
L 309.718001 206.564235 
L 312.792381 206.564235 
L 315.866761 206.564235 
L 318.941142 206.564235 
L 322.015522 206.564235 
L 325.089902 206.564235 
L 328.164282 206.564235 
L 331.238662 206.564235 
L 334.313042 206.564235 
L 337.387423 206.564235 
L 340.461803 206.564235 
L 343.536183 206.564235 
L 346.610563 206.564235 
L 349.684943 206.564235 
" style="fill:none;stroke:#bfbbd9;stroke-linecap:square;stroke-width:1.5;"/>
   </g>
   <g id="line2d_15">
    <path clip-path="url(#pb9671155dc)" d="M 45.321307 17.083636 
L 48.395687 95.445483 
L 51.470067 95.445483 
L 54.544447 150.643792 
L 57.618827 89.98375 
L 60.693208 89.98375 
L 63.767588 163.630199 
L 66.841968 163.630199 
L 69.916348 163.630199 
L 72.990728 163.630199 
L 76.065108 186.789775 
L 79.139489 186.789775 
L 82.213869 186.789775 
L 85.288249 213.211392 
L 88.362629 213.211392 
L 91.437009 189.342098 
L 94.511389 189.342098 
L 97.58577 189.342098 
L 100.66015 189.342098 
L 103.73453 189.342098 
L 106.80891 189.342098 
L 109.88329 189.342098 
L 112.95767 189.342098 
L 116.032051 189.342098 
L 119.106431 189.342098 
L 122.180811 189.342098 
L 125.255191 189.342098 
L 128.329571 189.342098 
L 131.403951 189.342098 
L 134.478332 189.342098 
L 137.552712 189.342098 
L 140.627092 189.342098 
L 143.701472 189.342098 
L 146.775852 189.342098 
L 149.850232 189.342098 
L 152.924613 189.342098 
L 155.998993 189.342098 
L 159.073373 189.342098 
L 162.147753 189.342098 
L 165.222133 189.342098 
L 168.296513 189.342098 
L 171.370894 189.342098 
L 174.445274 189.342098 
L 177.519654 189.342098 
L 180.594034 189.342098 
L 183.668414 189.342098 
L 186.742794 196.080757 
L 189.817175 196.080757 
L 192.891555 196.080757 
L 195.965935 196.080757 
L 199.040315 196.080757 
L 202.114695 196.080757 
L 205.189075 196.080757 
L 208.263456 196.080757 
L 211.337836 196.080757 
L 214.412216 196.080757 
L 217.486596 196.080757 
L 220.560976 196.080757 
L 223.635356 196.080757 
L 226.709737 196.080757 
L 229.784117 196.080757 
L 232.858497 196.080757 
L 235.932877 196.080757 
L 239.007257 196.080757 
L 242.081637 196.080757 
L 245.156018 196.080757 
L 248.230398 196.080757 
L 251.304778 196.080757 
L 254.379158 196.080757 
L 257.453538 196.080757 
L 260.527918 196.080757 
L 263.602299 196.080757 
L 266.676679 196.080757 
L 269.751059 196.080757 
L 272.825439 196.080757 
L 275.899819 196.080757 
L 278.974199 196.080757 
L 282.04858 196.080757 
L 285.12296 196.080757 
L 288.19734 196.080757 
L 291.27172 196.080757 
L 294.3461 196.080757 
L 297.42048 196.080757 
L 300.494861 196.080757 
L 303.569241 196.080757 
L 306.643621 196.080757 
L 309.718001 196.080757 
L 312.792381 196.080757 
L 315.866761 196.080757 
L 318.941142 196.080757 
L 322.015522 196.080757 
L 325.089902 196.080757 
L 328.164282 196.080757 
L 331.238662 196.080757 
L 334.313042 196.080757 
L 337.387423 196.080757 
L 340.461803 196.080757 
L 343.536183 196.080757 
L 346.610563 196.080757 
L 349.684943 196.080757 
" style="fill:none;stroke:#fa8174;stroke-linecap:square;stroke-width:1.5;"/>
   </g>
   <g id="patch_3">
    <path d="M 30.103125 224.64 
L 30.103125 7.2 
" style="fill:none;stroke:#ffffff;stroke-linecap:square;stroke-linejoin:miter;stroke-width:0.8;"/>
   </g>
   <g id="patch_4">
    <path d="M 364.903125 224.64 
L 364.903125 7.2 
" style="fill:none;stroke:#ffffff;stroke-linecap:square;stroke-linejoin:miter;stroke-width:0.8;"/>
   </g>
   <g id="patch_5">
    <path d="M 30.103125 224.64 
L 364.903125 224.64 
" style="fill:none;stroke:#ffffff;stroke-linecap:square;stroke-linejoin:miter;stroke-width:0.8;"/>
   </g>
   <g id="patch_6">
    <path d="M 30.103125 7.2 
L 364.903125 7.2 
" style="fill:none;stroke:#ffffff;stroke-linecap:square;stroke-linejoin:miter;stroke-width:0.8;"/>
   </g>
  </g>
 </g>
 <defs>
  <clipPath id="pb9671155dc">
   <rect height="217.44" width="334.8" x="30.103125" y="7.2"/>
  </clipPath>
 </defs>
</svg>
